<?xml version="1.0" standalone="no"?>
<!DOCTYPE svg PUBLIC "-//W3C//DTD SVG 1.1//EN" "http://www.w3.org/Graphics/SVG/1.1/DTD/svg11.dtd">
<!--Generator: Xara Designer (www.xara.com), SVG filter version: 6.6.0.6-->
<svg fill="none" fill-rule="evenodd" stroke="black" stroke-width="0.501" stroke-linejoin="bevel" stroke-miterlimit="10" font-family="Times New Roman" font-size="16" style="font-variant-ligatures:none" xmlns:xlink="http://www.w3.org/1999/xlink" xmlns="http://www.w3.org/2000/svg" version="1.1" overflow="visible" width="379.123pt" height="25.397pt" viewBox="44.809 -479.889 379.123 25.397">
 <defs>
  <style type="text/css">@import url('https://themes.googleusercontent.com/fonts/css?family=Open Sans:400,600');</style>
 </defs>
 <g id="Layer 1" transform="scale(1 -1)">
  <g id="Group" fill-rule="nonzero" stroke-linejoin="miter" stroke="none" stroke-width="0.25">
   <path d="M 376.274,455.025 L 369.793,455.017 L 369.79,457.859 L 369.695,457.858 C 368.288,456.024 365.848,454.988 363.453,454.986 C 356.688,454.976 352.828,461.124 352.82,467.372 C 352.811,473.477 356.702,479.542 363.324,479.55 C 365.719,479.554 368.165,478.523 369.764,476.647 L 369.76,479.589 L 376.241,479.599 L 376.274,455.025 Z M 370.434,467.301 C 370.43,470.4 368.312,473.731 364.931,473.727 C 361.549,473.722 359.487,470.385 359.491,467.286 C 359.495,464.185 361.566,460.808 364.949,460.812 C 368.329,460.816 370.438,464.2 370.434,467.301 Z" fill="#ffffff" marker-start="none" marker-end="none"/>
   <path d="M 408.534,465.917 C 408.637,463.35 409.875,460.012 413.167,460.016 C 415.36,460.018 416.741,461.357 417.646,463.221 L 423.795,463.232 C 422.844,458.321 418.085,454.91 413.173,454.903 C 405.925,454.894 401.485,460.047 401.476,467.165 C 401.466,474.284 405.225,479.879 412.806,479.889 C 420.483,479.9 423.921,474.219 423.931,467.149 L 423.932,465.947 L 408.534,465.917 Z M 417.636,470.695 C 417.298,473.082 415.868,475.214 413.295,475.211 C 410.624,475.207 409.049,473.127 408.717,470.689 L 417.636,470.695 Z" fill="#ffffff" marker-start="none" marker-end="none"/>
   <path d="M 336.016,479.56 L 336.025,473.78 L 340.647,473.786 L 340.667,454.993 L 347.509,455.002 L 347.508,473.795 L 353.009,473.773 L 353,479.583 L 336.016,479.56 Z" fill="#ffffff" marker-start="none" marker-end="none"/>
   <path d="M 377.422,467.216 C 377.431,460.125 382.528,454.784 389.27,454.792 C 396.168,454.801 400.621,459.65 400.61,467.142 L 400.609,468.452 L 388.571,468.452 L 388.577,463.728 C 388.577,463.728 392.391,463.719 393.768,463.735 C 393.251,461.508 391.101,460.321 389.442,460.319 C 385.588,460.313 384.183,464.594 384.179,467.224 C 384.175,469.819 385.428,473.942 389.395,473.946 C 391.257,473.949 392.735,473.212 393.519,471.354 L 394.088,471.339 L 400.485,471.347 C 400.485,471.347 400.29,472.022 400.032,472.677 C 399.772,473.336 399.405,474.073 399.405,474.073 C 397.509,477.692 393.808,479.845 389.507,479.841 C 382.605,479.831 377.412,474.403 377.422,467.216 Z" fill="#ffffff" marker-start="none" marker-end="none"/>
   <path d="M 210.361,454.818 L 203.88,454.81 L 203.876,457.652 L 203.783,457.651 C 202.377,455.817 199.935,454.781 197.539,454.779 C 190.775,454.769 186.915,460.915 186.906,467.163 C 186.898,473.269 190.789,479.335 197.412,479.343 C 199.809,479.347 202.251,478.318 203.85,476.44 L 203.847,479.381 L 210.328,479.389 L 210.361,454.818 Z M 204.521,467.094 C 204.516,470.193 202.397,473.524 199.017,473.52 C 195.636,473.515 193.573,470.177 193.578,467.079 C 193.582,463.98 195.653,460.6 199.033,460.605 C 202.414,460.609 204.525,463.995 204.521,467.094 Z" fill="#c8d52a" marker-start="none" marker-end="none"/>
   <path d="M 214.282,479.395 L 220.869,479.404 L 220.874,476.615 C 222.377,478.408 224.823,479.492 227.268,479.495 C 233.811,479.504 237.821,473.39 237.829,467.322 C 237.838,461.014 233.985,454.892 227.163,454.882 C 224.808,454.88 222.315,455.911 220.994,457.792 L 220.899,457.791 L 220.902,454.833 L 214.314,454.823 L 214.282,479.395 Z M 231.144,467.219 C 231.14,470.323 229.067,473.663 225.678,473.658 C 222.291,473.654 220.223,470.308 220.227,467.203 C 220.232,464.096 222.308,460.713 225.695,460.717 C 229.084,460.721 231.148,464.112 231.144,467.219 Z" fill="#c8d52a" marker-start="none" marker-end="none"/>
   <path d="M 262.624,454.888 L 256.142,454.879 L 256.139,457.722 L 256.044,457.722 C 254.637,455.888 252.196,454.852 249.801,454.849 C 243.035,454.839 239.177,460.985 239.168,467.233 C 239.16,473.339 243.052,479.405 249.674,479.414 C 252.072,479.418 254.513,478.389 256.112,476.51 L 256.108,479.451 L 262.59,479.459 L 262.624,454.888 Z M 256.783,467.164 C 256.778,470.263 254.66,473.595 251.279,473.59 C 247.896,473.585 245.834,470.248 245.838,467.15 C 245.842,464.051 247.912,460.67 251.296,460.675 C 254.677,460.68 256.787,464.065 256.783,467.164 Z" fill="#c8d52a" marker-start="none" marker-end="none"/>
   <path d="M 272.458,479.474 L 279.471,479.484 L 279.505,454.956 L 272.491,454.947 L 272.476,465.674 C 272.471,469.364 271.964,473.536 267.103,473.529 C 266.053,473.528 264.198,473.235 263.616,472.654 L 263.607,478.962 C 264.241,479.303 265.242,479.547 266.244,479.548 C 268.848,479.552 270.955,478.39 272.361,476.303 L 272.462,476.303 L 272.458,479.474 Z" fill="#c8d52a" marker-start="none" marker-end="none"/>
   <path d="M 281.178,465.756 L 281.176,466.956 C 281.167,474.028 284.591,479.717 292.268,479.728 C 299.85,479.738 303.623,474.152 303.632,467.034 C 303.642,459.915 299.216,454.748 291.967,454.739 C 287.056,454.732 282.288,458.13 281.323,463.038 L 287.471,463.047 C 288.381,461.183 289.766,459.848 291.96,459.851 C 295.253,459.856 296.483,463.2 296.578,465.767 L 281.178,465.756 Z M 296.382,470.537 C 296.044,472.973 294.461,475.05 291.792,475.046 C 289.218,475.042 287.794,472.908 287.463,470.519 L 296.382,470.537 Z" fill="#c8d52a" marker-start="none" marker-end="none"/>
   <path d="M 336.015,479.561 L 336.023,473.791 L 331.471,473.775 L 331.471,454.981 L 324.628,454.972 L 324.608,473.783 L 316.083,473.773 L 316.084,454.961 L 309.241,454.951 L 309.223,473.745 L 303.664,473.737 L 303.656,479.517 L 336.015,479.561 Z" fill="#c8d52a" marker-start="none" marker-end="none"/>
   <path d="M 179.849,479.383 L 188.095,479.394 L 178.316,467.725 L 189.009,454.779 L 180.404,454.768 L 172.13,465.431 L 172.066,465.43 L 172.08,454.756 L 165.369,454.747 L 165.335,479.363 L 172.047,479.372 L 172.061,469.219 L 172.126,469.22 L 179.849,479.383 Z" fill="#c8d52a" marker-start="none" marker-end="none"/>
   <path d="M 108.834,476.303 L 108.929,476.303 C 110.333,478.44 112.709,479.265 115.132,479.269 C 121.534,479.278 123.382,474.772 123.389,469.246 L 123.408,454.698 L 116.621,454.689 L 116.604,467.295 C 116.6,470.154 116.74,473.841 112.909,473.836 C 108.885,473.831 108.843,469.321 108.848,466.461 L 108.863,454.679 L 102.072,454.671 L 102.041,479.247 L 108.831,479.252 L 108.834,476.303 Z" fill="#ffffff" marker-start="none" marker-end="none"/>
   <path d="M 156.27,476.147 L 156.362,476.147 C 157.665,478.237 159.623,479.405 162.051,479.408 C 162.984,479.409 163.918,479.167 164.439,478.828 L 164.433,472.518 C 163.958,473.101 162.245,473.387 161.265,473.385 C 156.741,473.379 156.279,469.208 156.283,465.516 L 156.298,454.791 L 149.766,454.782 L 149.733,479.309 L 156.266,479.318 L 156.27,476.147 Z" fill="#ffffff" marker-start="none" marker-end="none"/>
   <path d="M 132.293,465.544 C 132.395,462.978 133.635,459.639 136.927,459.643 C 139.12,459.646 140.501,460.985 141.406,462.848 L 147.555,462.859 C 146.603,457.948 141.845,454.537 136.933,454.53 C 129.685,454.521 125.246,459.674 125.236,466.793 C 125.225,473.911 128.984,479.506 136.565,479.516 C 144.242,479.528 147.68,473.847 147.69,466.776 L 147.692,465.575 L 132.293,465.544 Z M 141.395,470.322 C 141.057,472.708 139.628,474.841 137.056,474.838 C 134.384,474.834 132.808,472.753 132.476,470.316 L 141.395,470.322 Z" fill="#ffffff" marker-start="none" marker-end="none"/>
   <path d="M 70.2,479.201 L 76.847,479.21 L 76.872,460.67 L 85.463,460.682 L 85.47,454.65 L 70.233,454.629 L 70.2,479.201 Z" fill="#ffffff" marker-start="none" marker-end="none"/>
   <path d="M 94.177,473.454 L 94.188,454.66 L 87.336,454.652 L 87.316,473.445 L 81.756,473.438 L 81.749,479.218 L 99.669,479.242 L 99.677,473.474 L 94.177,473.454 Z" fill="#ffffff" marker-start="none" marker-end="none"/>
   <path d="M 44.809,466.869 C 44.818,459.803 49.844,454.482 56.499,454.492 C 63.154,454.501 68.164,459.834 68.155,466.9 C 68.145,473.817 63.012,479.227 56.465,479.219 C 49.921,479.21 44.799,473.786 44.809,466.869 Z M 51.032,467.05 C 51.028,470.014 53.215,473.192 56.473,473.197 C 59.733,473.201 61.925,470.029 61.929,467.065 C 61.933,463.59 59.682,460.518 56.49,460.514 C 53.388,460.51 51.038,463.397 51.032,467.05 Z" fill="#ffffff" marker-start="none" marker-end="none"/>
  </g>
 </g>
</svg>
